<?xml version="1.0" encoding="UTF-8"?>
<svg id="Layer_2" data-name="Layer 2" xmlns="http://www.w3.org/2000/svg" viewBox="0 0 717.41 172.42">
  <defs>
    <style>
      .cls-1 {
        fill: #044a5b;
      }

      .cls-2 {
        fill: #3e717a;
      }
    </style>
  </defs>
  <g id="Layer_1-2" data-name="Layer 1">
    <g>
      <g>
        <path class="cls-2" d="m76.01,51.14v8.95c0,7.02,8.49,10.54,13.46,5.57l9.14-9.14-25.39-14.66v9.27h2.79Z"/>
        <path class="cls-2" d="m103.44,59.31l-11.36,11.36c-4.52,4.52-1.32,12.25,5.07,12.25h9.49v5.38h-10.95c-5.86,0-8.79,7.08-4.65,11.22l11.04,11.04,8.1-4.68v-42.69l-6.75-3.9Z"/>
        <path class="cls-2" d="m84.89,100.98c-3.27-3.27-8.87-.96-8.87,3.68v13.31h-2.79v9.27l24.04-13.88-12.37-12.37Z"/>
      </g>
      <g>
        <polygon class="cls-2" points="102.9 117.95 102.89 117.95 102.89 117.95 102.89 117.95 73.22 135.08 73.22 169.1 102.89 151.97 137.93 172.42 167.71 155.23 103.49 118.29 102.9 117.95"/>
        <polygon class="cls-2" points="116.98 59.29 116.98 109.72 146.45 126.73 146.45 42.28 73.22 0 73.22 34.02 116.98 59.29"/>
      </g>
    </g>
    <g>
      <polygon class="cls-1" points="73.22 135.08 29.46 109.82 29.46 59.29 73.22 34.02 73.22 0 0 42.28 0 126.83 73.22 169.1 73.22 135.08"/>
      <polygon class="cls-1" points="102.95 152 137.93 172.42 167.71 155.23 132.43 134.94 102.95 152"/>
      <g>
        <path class="cls-1" d="m57.17,65.66c4.97,4.97,13.46,1.45,13.46-5.57v-8.95h2.59v-9.27l-25.26,14.58,9.21,9.21Z"/>
        <path class="cls-1" d="m70.63,117.96v-13.31c0-4.63-5.6-6.95-8.87-3.68l-12.45,12.45,23.91,13.8v-9.27h-2.59Z"/>
        <path class="cls-1" d="m55.6,99.53c4.14-4.14,1.21-11.22-4.65-11.22h-11.15v-5.38h9.69c6.39,0,9.6-7.73,5.07-12.25l-11.44-11.44-6.88,3.97v42.69l8.23,4.75,11.12-11.12Z"/>
      </g>
    </g>
    <g>
      <path class="cls-1" d="m240.84,111.63l-5.04,6-10.6-8.37c-4.76,2.89-10.14,4.34-16.12,4.34-9.03,0-16.41-3.04-22.17-9.13-5.76-6.09-8.63-14.11-8.63-24.08s2.88-18.02,8.63-24.1c5.75-6.07,13.14-9.11,22.17-9.11s16.36,3.04,22.08,9.11c5.72,6.08,8.59,14.11,8.59,24.1s-2.78,17.66-8.32,23.88l9.42,7.36Zm-16.53-11.73c.48-.44.93-.91,1.32-1.42,3.54-4.59,5.3-10.61,5.3-18.08,0-8.18-2.04-14.55-6.13-19.1-4.09-4.56-9.3-6.84-15.64-6.84s-11.75,2.28-15.88,6.84c-4.13,4.56-6.2,10.92-6.2,19.1s2.06,14.51,6.18,19.08c4.12,4.57,9.36,6.86,15.73,6.86.03,0,.07,0,.1,0,5.13-.02,10.03-2.04,13.96-5.33.43-.36.85-.73,1.26-1.1Z"/>
      <path class="cls-1" d="m324.81,107.73c-4.21,3.91-9.62,5.87-16.25,5.87-4.62,0-8.41-1.25-11.39-3.75-2.98-2.5-4.47-5.72-4.47-9.66,0-10.87,9.36-16.3,28.08-16.3h4.03c0-3.33-.17-5.75-.53-7.25-.35-1.5-1.33-2.75-2.94-3.75-1.61-.99-4.16-1.49-7.67-1.49-7.36,0-11.16,2.63-11.39,7.89h-8.24c.61-9.55,7.3-14.33,20.07-14.33,5.96,0,10.6,1.18,13.93,3.55,3.33,2.37,4.99,7.01,4.99,13.93v30.06h-8.24v-4.78Zm0-7.45v-10.3h-5.65c-11.98,0-17.96,3.26-17.96,9.77,0,2.37.88,4.18,2.63,5.45,1.75,1.27,4.12,1.91,7.1,1.91,2.72,0,5.34-.61,7.89-1.84,2.54-1.23,4.54-2.89,6-4.99Z"/>
      <path class="cls-1" d="m277.71,106.59c-4.12,4.67-8.75,7.01-13.89,7.01-10.49,0-15.73-5.72-15.73-17.18v-30.41h8.28v30.06c0,3.8.67,6.53,2.02,8.19,1.34,1.66,3.56,2.5,6.66,2.5,4.61,0,8.83-2.48,12.66-7.45v-33.3h8.24v46.49h-8.24v-5.92Z"/>
      <path class="cls-1" d="m350.04,112.76h-8.28V48.53h8.28v64.23Z"/>
      <path class="cls-1" d="m368.13,57.21h-8.28v-8.94h8.28v8.94Zm0,55.29h-8.28v-46.49h8.28v46.49Z"/>
      <path class="cls-1" d="m419.26,66.02l-17.57,46.49h-7.36l-17.57-46.49h8.94l12.31,36.36,12.31-36.36h8.94Z"/>
      <path class="cls-1" d="m436.33,57.21h-8.28v-8.94h8.28v8.94Zm0,55.29h-8.28v-46.49h8.28v46.49Z"/>
      <path class="cls-1" d="m466.83,113.6c-6.83,0-12.33-2.14-16.47-6.42-4.15-4.28-6.22-10.24-6.22-17.9s2.01-13.55,6.02-17.85c4.02-4.31,9.27-6.46,15.75-6.46s11.92,2.12,15.88,6.35c3.96,4.24,5.94,10.22,5.94,17.96v1.97h-35.01c.35,5.37,1.83,9.36,4.45,11.96,2.61,2.6,5.83,3.9,9.66,3.9,2.89,0,5.5-.74,7.82-2.21,2.32-1.47,3.54-3.57,3.66-6.29h8.54c-.64,4.79-2.81,8.49-6.51,11.08-3.7,2.6-8.2,3.9-13.52,3.9Zm12.18-28.83c-.67-4.47-2.18-7.81-4.51-10.03-2.34-2.22-5.2-3.33-8.59-3.33s-6.13,1.1-8.5,3.31c-2.37,2.21-3.87,5.56-4.51,10.06h26.11Z"/>
      <path class="cls-1" d="m556.14,66.02l-13.98,46.49h-7.89l-10.08-34.17-10.03,34.17h-7.89l-14.02-46.49h9.16l8.54,35.44,10.47-35.44h7.54l10.52,35.44,8.54-35.44h9.11Z"/>
      <path class="cls-1" d="m623.55,112.5h-33.58V48.27h8.5v56.61h25.08v7.62Z"/>
      <path class="cls-1" d="m660.75,107.73c-4.21,3.91-9.62,5.87-16.25,5.87-4.62,0-8.41-1.25-11.39-3.75-2.98-2.5-4.47-5.72-4.47-9.66,0-10.87,9.36-16.3,28.08-16.3h4.03c0-3.33-.17-5.75-.53-7.25-.35-1.5-1.33-2.75-2.94-3.75-1.61-.99-4.16-1.49-7.67-1.49-7.36,0-11.16,2.63-11.39,7.89h-8.24c.61-9.55,7.3-14.33,20.07-14.33,5.96,0,10.6,1.18,13.93,3.55,3.33,2.37,4.99,7.01,4.99,13.93v30.06h-8.24v-4.78Zm0-7.45v-10.3h-5.65c-11.98,0-17.96,3.26-17.96,9.77,0,2.37.88,4.18,2.63,5.45s4.12,1.91,7.1,1.91c2.72,0,5.34-.61,7.89-1.84,2.54-1.23,4.54-2.89,6-4.99Z"/>
      <path class="cls-1" d="m685.03,71.58c3.68-4.41,8.1-6.62,13.27-6.62,6.08,0,10.78,2.15,14.11,6.46,3.33,4.31,4.99,10.13,4.99,17.46s-1.86,13.65-5.59,18.07c-3.72,4.43-8.42,6.64-14.09,6.64-5.02,0-9.26-1.56-12.71-4.69v3.59h-8.28V48.27h8.28v23.31Zm0,29.88c3.53,3.77,7.59,5.65,12.18,5.65,3.56,0,6.4-1.53,8.5-4.58,2.1-3.05,3.15-7.6,3.15-13.65,0-5.72-.99-10.07-2.98-13.03-1.99-2.96-4.76-4.45-8.32-4.45-4.59,0-8.76,2.66-12.53,7.97v22.08Z"/>
    </g>
  </g>
</svg>